<svg xmlns="http://www.w3.org/2000/svg" xmlns:xlink="http://www.w3.org/1999/xlink" width="75" height="75" viewBox="0 0 75 75"><rect width="100%" height="100%" fill="#DDDDDD"/><path d="M12.87 32.02L20.36 32.02L20.36 32.82Q20.36 33.18 20.29 33.40Q20.21 33.62 20.14 33.77L20.14 33.77L16.03 42.23Q15.90 42.49 15.67 42.68Q15.43 42.86 15.04 42.86L15.04 42.86L13.70 42.86L17.89 34.57Q18.04 34.32 18.18 34.11Q18.31 33.89 18.49 33.70L18.49 33.70L13.30 33.70Q13.12 33.70 13.00 33.57Q12.87 33.44 12.87 33.27L12.87 33.27L12.87 32.02ZM24.30 33.70L23.92 35.95Q24.28 35.88 24.61 35.85Q24.94 35.81 25.24 35.81L25.24 35.81Q26.10 35.81 26.75 36.07Q27.40 36.32 27.85 36.77Q28.29 37.22 28.51 37.83Q28.74 38.43 28.74 39.13L28.74 39.13Q28.74 39.99 28.44 40.70Q28.13 41.41 27.59 41.92Q27.05 42.43 26.31 42.70Q25.57 42.98 24.70 42.98L24.70 42.98Q24.19 42.98 23.74 42.88Q23.28 42.77 22.88 42.60Q22.48 42.42 22.14 42.19Q21.79 41.96 21.52 41.71L21.52 41.71L22.09 40.92Q22.27 40.66 22.57 40.66L22.57 40.66Q22.75 40.66 22.95 40.78Q23.14 40.90 23.40 41.05Q23.65 41.19 23.99 41.31Q24.33 41.43 24.81 41.43L24.81 41.43Q25.32 41.43 25.71 41.27Q26.10 41.10 26.36 40.80Q26.62 40.51 26.75 40.10Q26.88 39.69 26.88 39.21L26.88 39.21Q26.88 38.32 26.37 37.83Q25.85 37.33 24.85 37.33L24.85 37.33Q24.07 37.33 23.26 37.61L23.26 37.61L22.11 37.28L23.01 32.02L28.36 32.02L28.36 32.80Q28.36 33.20 28.12 33.45Q27.87 33.70 27.28 33.70L27.28 33.70L24.30 33.70ZM41.11 40.38L40.12 41.35L37.58 38.80L35.02 41.36L34.03 40.39L36.60 37.82L34.15 35.38L35.13 34.40L37.57 36.85L40.00 34.42L40.99 35.39L38.56 37.83L41.11 40.38ZM46.26 32.02L53.75 32.02L53.75 32.82Q53.75 33.18 53.68 33.40Q53.60 33.62 53.53 33.77L53.53 33.77L49.42 42.23Q49.29 42.49 49.06 42.68Q48.82 42.86 48.43 42.86L48.43 42.86L47.09 42.86L51.28 34.57Q51.43 34.32 51.57 34.11Q51.70 33.89 51.88 33.70L51.88 33.70L46.69 33.70Q46.51 33.70 46.39 33.57Q46.26 33.44 46.26 33.27L46.26 33.27L46.26 32.02ZM57.69 33.70L57.31 35.95Q57.67 35.88 58.00 35.85Q58.33 35.81 58.63 35.81L58.63 35.81Q59.49 35.81 60.14 36.07Q60.79 36.32 61.24 36.77Q61.68 37.22 61.90 37.83Q62.13 38.43 62.13 39.13L62.13 39.13Q62.13 39.99 61.83 40.70Q61.52 41.41 60.98 41.92Q60.44 42.43 59.70 42.70Q58.96 42.98 58.09 42.98L58.09 42.98Q57.58 42.98 57.13 42.88Q56.67 42.77 56.27 42.60Q55.87 42.42 55.53 42.19Q55.18 41.96 54.91 41.71L54.91 41.71L55.48 40.92Q55.66 40.66 55.96 40.66L55.96 40.66Q56.14 40.66 56.34 40.78Q56.53 40.90 56.79 41.05Q57.04 41.19 57.38 41.31Q57.72 41.43 58.20 41.43L58.20 41.43Q58.71 41.43 59.10 41.27Q59.49 41.10 59.75 40.80Q60.01 40.51 60.14 40.10Q60.27 39.69 60.27 39.21L60.27 39.21Q60.27 38.32 59.76 37.83Q59.24 37.33 58.24 37.33L58.24 37.33Q57.46 37.33 56.65 37.61L56.65 37.61L55.50 37.28L56.40 32.02L61.75 32.02L61.75 32.80Q61.75 33.20 61.51 33.45Q61.26 33.70 60.67 33.70L60.67 33.70L57.69 33.70Z" fill="#999999"/></svg>